<svg xmlns="http://www.w3.org/2000/svg" viewBox="0 0 47.5 47.5" id="house">
  <defs>
    <clipPath id="a">
      <path d="M0 38h38V0H0v38Z"></path>
    </clipPath>
  </defs>
  <path fill="#ffe8b6" d="M7.5 23.75 23.75 7.5 40 23.75v20H7.5v-20Z"></path>
  <path fill="#ffcc4d" d="M7.5 43.75h1.25v-20H7.5v20zm31.25 0h1.251v-20H38.75v20z"></path>
  <g clip-path="url(#a)" transform="matrix(1.25 0 0 -1.25 0 47.5)">
    <path fill="#66757f" d="M32 18a.997.997 0 0 0-.707.293L19 30.586 6.707 18.293a.999.999 0 1 0-1.414 1.414l13 13a.999.999 0 0 0 1.414 0l13-13A.999.999 0 0 0 32 18"></path>
    <path fill="#c1694f" d="M21 3h-4v8h4V3z"></path>
    <path fill="#55acee" d="M14 15h-4v4h4v-4zm14 0h-4v4h4v-4zm-7 0h-4v4h4v-4zm-7-8h-4v4h4V7zm14 0h-4v4h4V7z"></path>
    <path fill="#bcbec0" d="M34 2a1 1 0 0 0-1-1H5a1 1 0 1 0 0 2h28a1 1 0 0 0 1-1"></path>
  </g>
</svg>
